<mxfile host="app.diagrams.net" modified="2024-07-15T06:50:54.046Z" agent="Mozilla/5.0 (Windows NT 10.0; Win64; x64) AppleWebKit/537.36 (KHTML, like Gecko) Chrome/126.0.0.0 Safari/537.36 Edg/126.0.0.0" version="24.2.5" etag="JUGoXShMr_0QfQuoyWyk" type="github">
  <diagram name="Page-1" id="CnWTG-nyiAEwPa61tPPC">
    <mxGraphModel>
      <root>
        <mxCell id="0" />
        <mxCell id="1" parent="0" />
      </root>
    </mxGraphModel>
  </diagram>
</mxfile>
